<?xml version="1.0" encoding="UTF-8" standalone="no"?>
<!DOCTYPE svg PUBLIC "-//W3C//DTD SVG 1.1//EN" "http://www.w3.org/Graphics/SVG/1.1/DTD/svg11.dtd">
<svg width="100%" height="100%" viewBox="0 0 500 250" version="1.1" xmlns="http://www.w3.org/2000/svg" xmlns:xlink="http://www.w3.org/1999/xlink" xml:space="preserve" xmlns:serif="http://www.serif.com/" style="fill-rule:evenodd;clip-rule:evenodd;stroke-linejoin:round;stroke-miterlimit:2;">
    <g transform="matrix(0.1,0,0,-0.1,0,250)">
        <g transform="matrix(10,0,0,-10,0,2500)">
            <rect x="25.683" y="24.872" width="455.036" height="197.442" style="fill:rgb(235,235,235);"/>
        </g>
        <path d="M81,2487C62,2480 37,2462 26,2447L5,2419L5,81L26,53C37,38 62,20 81,13C126,-3 4855,-5 4912,10C4935,17 4958,33 4972,53L4995,85L4995,2415L4972,2447C4958,2467 4935,2483 4912,2490C4855,2505 126,2503 81,2487ZM3773,1959C3812,1917 3809,1877 3765,1833C3733,1801 3725,1798 3689,1803C3650,1808 3646,1806 3547,1718C3475,1655 3443,1620 3439,1599C3435,1583 3427,1564 3420,1556C3401,1532 3346,1518 3318,1529C3284,1542 3250,1587 3250,1619C3250,1639 3235,1659 3188,1700C3077,1798 3087,1793 3046,1769C3007,1746 2969,1749 2939,1776C2925,1789 2912,1781 2822,1703C2730,1624 2721,1612 2725,1587C2731,1551 2708,1495 2682,1481C2601,1438 2506,1518 2540,1601C2559,1647 2592,1664 2647,1657L2694,1652L2797,1743C2859,1797 2900,1841 2900,1852C2900,1910 2961,1958 3019,1945C3052,1938 3090,1898 3090,1870C3090,1860 3131,1815 3180,1771L3271,1690L3302,1706C3337,1724 3384,1719 3411,1694C3428,1679 3435,1683 3523,1761C3612,1839 3617,1845 3608,1871C3594,1911 3621,1967 3662,1985C3705,2004 3739,1996 3773,1959ZM3109,1453C3121,1443 3133,1418 3136,1398C3141,1368 3138,1357 3117,1336C3064,1283 2970,1318 2970,1390C2970,1456 3057,1495 3109,1453ZM2830,1460L2830,930L2855,930C2879,930 2880,927 2880,870L2880,810L2806,810C2740,810 2728,813 2701,836L2670,862L2670,1460L2830,1460ZM3950,1400L3950,1280L4050,1280L4050,1170L3950,1170L3950,1061C3950,1001 3953,945 3956,936C3960,925 3975,920 4001,920L4040,920L4040,812L3991,805C3925,796 3853,808 3824,834C3790,862 3781,913 3780,1053L3780,1170L3710,1170L3710,1280L3780,1280L3780,1400L3950,1400ZM1319,1271C1395,1233 1409,1188 1411,970L1412,815L1333,815C1259,815 1255,816 1252,839C1248,862 1248,862 1234,842C1213,812 1127,795 1073,809C1011,826 970,877 970,939C970,1032 1032,1084 1166,1103C1238,1113 1241,1114 1238,1138C1234,1170 1210,1185 1177,1176C1160,1172 1148,1161 1144,1145C1138,1121 1135,1120 1059,1120C973,1120 970,1123 991,1177C1004,1212 1037,1248 1073,1267C1140,1301 1254,1303 1319,1271ZM1935,1271C1951,1262 1973,1239 1985,1220C2003,1188 2005,1168 2005,1000L2005,815L1845,815L1840,983C1835,1135 1833,1153 1816,1166C1782,1191 1738,1182 1717,1146C1710,1133 1703,1065 1700,970L1695,815L1535,815L1532,1048L1530,1280L1700,1280L1700,1227L1720,1253C1756,1299 1868,1308 1935,1271ZM2459,1267C2514,1240 2559,1186 2567,1137L2573,1100L2413,1100L2406,1130C2395,1189 2312,1195 2282,1140C2262,1101 2270,968 2294,941C2327,904 2392,918 2404,965C2410,989 2413,990 2490,990C2577,990 2580,987 2559,933C2545,895 2503,852 2455,827C2398,798 2281,798 2223,828C2090,898 2056,1092 2158,1210C2232,1297 2351,1319 2459,1267ZM3565,1266C3602,1246 3649,1183 3650,1153C3650,1144 3627,1140 3569,1140C3497,1140 3488,1142 3483,1160C3476,1186 3442,1196 3424,1178C3398,1152 3419,1131 3494,1109C3619,1071 3660,1033 3660,953C3660,861 3584,807 3455,806C3331,805 3251,854 3234,939L3228,970L3309,970C3356,970 3390,966 3390,960C3390,941 3430,910 3454,910C3467,910 3483,917 3490,926C3511,950 3477,975 3390,1000C3289,1030 3250,1068 3250,1137C3250,1221 3296,1270 3393,1290C3450,1301 3517,1292 3565,1266ZM3138,1048L3135,815L2975,815L2972,1048L2970,1280L3140,1280L3138,1048ZM2510,694C2510,673 2514,670 2530,675C2561,685 2604,637 2595,602C2585,560 2571,550 2524,550L2480,550L2480,635C2480,704 2483,720 2495,720C2504,720 2510,710 2510,694ZM2800,637L2800,553L2759,552C2706,550 2690,563 2690,611C2690,641 2696,653 2715,666C2729,675 2747,679 2760,675C2777,670 2780,673 2780,694C2780,708 2785,720 2790,720C2796,720 2800,686 2800,637ZM3270,651C3270,613 3273,575 3276,566C3280,556 3277,550 3267,550C3259,550 3249,557 3246,566C3238,587 3238,705 3247,713C3264,731 3270,715 3270,651ZM2431,659C2469,621 2442,550 2389,550C2340,550 2322,622 2360,660C2385,685 2405,685 2431,659ZM2918,664C2943,647 2949,583 2928,562C2911,545 2865,547 2850,566C2829,591 2834,641 2859,662C2887,684 2890,684 2918,664ZM3191,659C3206,644 3210,630 3207,603C3202,565 3187,550 3156,550C3105,550 3082,622 3120,660C3145,685 3165,685 3191,659ZM3400,662C3425,641 3430,589 3409,564C3395,547 3339,545 3322,562C3301,583 3307,647 3332,664C3361,685 3373,684 3400,662ZM3548,664C3563,654 3570,639 3570,615C3570,572 3546,547 3508,552C3484,556 3480,553 3480,533C3480,520 3476,510 3470,510C3464,510 3460,543 3460,589C3460,664 3461,669 3483,673C3522,681 3525,680 3548,664ZM3685,666C3707,650 3711,590 3691,566C3675,547 3629,545 3612,562C3591,583 3597,647 3622,664C3650,684 3661,684 3685,666ZM3800,665C3800,657 3793,650 3785,650C3774,650 3770,638 3770,600C3770,562 3766,550 3755,550C3743,550 3740,563 3740,609C3740,672 3738,669 3793,679C3797,679 3800,673 3800,665ZM2185,625L2196,588L2208,629C2224,680 2247,683 2256,635C2263,595 2276,597 2285,640C2289,657 2297,670 2305,670C2315,670 2314,658 2300,613C2290,580 2276,555 2269,555C2262,555 2250,573 2244,595L2233,635L2221,593C2214,569 2203,550 2196,550C2189,550 2176,574 2167,603C2147,667 2146,673 2162,668C2169,665 2180,646 2185,625ZM3009,619L3024,575L3039,623C3047,650 3060,670 3068,670C3075,670 3080,666 3078,662C3077,658 3066,631 3056,602C3045,573 3031,550 3024,550C3017,550 3002,575 2991,605C2967,670 2966,673 2982,668C2988,666 3000,644 3009,619Z" style="fill:rgb(249,87,88);fill-rule:nonzero;"/>
        <path d="M3670,1930C3645,1905 3645,1898 3668,1870C3682,1852 3693,1849 3713,1854C3748,1862 3759,1903 3735,1930C3712,1955 3695,1955 3670,1930Z" style="fill:rgb(249,87,88);fill-rule:nonzero;"/>
        <path d="M2968,1889C2935,1870 2956,1800 2994,1800C3031,1800 3055,1848 3034,1879C3018,1902 2995,1905 2968,1889Z" style="fill:rgb(249,87,88);fill-rule:nonzero;"/>
        <path d="M3312,1658C3287,1633 3308,1570 3341,1570C3367,1570 3390,1593 3390,1618C3390,1651 3374,1670 3345,1670C3333,1670 3319,1665 3312,1658Z" style="fill:rgb(249,87,88);fill-rule:nonzero;"/>
        <path d="M2590,1594C2580,1583 2579,1571 2586,1552C2603,1503 2680,1515 2680,1566C2680,1604 2614,1624 2590,1594Z" style="fill:rgb(249,87,88);fill-rule:nonzero;"/>
        <path d="M1163,998C1119,977 1130,920 1179,920C1213,920 1240,948 1240,983C1240,1006 1236,1010 1213,1009C1197,1009 1175,1004 1163,998Z" style="fill:rgb(249,87,88);fill-rule:nonzero;"/>
        <path d="M2521,651C2514,646 2510,629 2512,609C2514,580 2519,575 2540,575C2561,575 2566,580 2568,607C2571,641 2545,666 2521,651Z" style="fill:rgb(249,87,88);fill-rule:nonzero;"/>
        <path d="M2725,644C2697,616 2710,570 2745,570C2771,570 2785,598 2775,629C2767,655 2744,662 2725,644Z" style="fill:rgb(249,87,88);fill-rule:nonzero;"/>
        <path d="M2375,644C2354,623 2356,620 2390,620C2409,620 2420,625 2420,634C2420,655 2393,661 2375,644Z" style="fill:rgb(249,87,88);fill-rule:nonzero;"/>
        <path d="M2366,585C2370,577 2380,570 2390,570C2400,570 2413,577 2420,585C2431,598 2427,600 2397,600C2369,600 2362,597 2366,585Z" style="fill:rgb(249,87,88);fill-rule:nonzero;"/>
        <path d="M2877,649C2851,634 2857,620 2890,620C2922,620 2928,631 2907,648C2899,655 2889,655 2877,649Z" style="fill:rgb(249,87,88);fill-rule:nonzero;"/>
        <path d="M2862,588C2869,569 2905,567 2920,585C2931,598 2928,600 2895,600C2870,600 2860,596 2862,588Z" style="fill:rgb(249,87,88);fill-rule:nonzero;"/>
        <path d="M3143,653C3117,644 3130,620 3160,620C3181,620 3188,624 3184,634C3177,651 3160,659 3143,653Z" style="fill:rgb(249,87,88);fill-rule:nonzero;"/>
        <path d="M3132,588C3139,569 3177,567 3183,584C3188,596 3182,600 3159,600C3139,600 3130,596 3132,588Z" style="fill:rgb(249,87,88);fill-rule:nonzero;"/>
        <path d="M3347,649C3312,629 3331,566 3371,572C3390,574 3396,582 3398,607C3402,644 3376,665 3347,649Z" style="fill:rgb(249,87,88);fill-rule:nonzero;"/>
        <path d="M3495,644C3467,616 3480,570 3515,570C3541,570 3555,598 3545,629C3537,655 3514,662 3495,644Z" style="fill:rgb(249,87,88);fill-rule:nonzero;"/>
        <path d="M3637,648C3611,634 3617,620 3650,620C3669,620 3680,625 3680,634C3680,653 3658,660 3637,648Z" style="fill:rgb(249,87,88);fill-rule:nonzero;"/>
        <path d="M3626,585C3630,577 3640,570 3650,570C3660,570 3673,577 3680,585C3691,598 3687,600 3657,600C3629,600 3622,597 3626,585Z" style="fill:rgb(249,87,88);fill-rule:nonzero;"/>
    </g>
</svg>
