<?xml version="1.0" encoding="UTF-8" standalone="no"?>
<!DOCTYPE svg PUBLIC "-//W3C//DTD SVG 1.1//EN" "http://www.w3.org/Graphics/SVG/1.1/DTD/svg11.dtd">
<svg width="100%" height="100%" viewBox="0 0 137 31" version="1.1" xmlns="http://www.w3.org/2000/svg" xmlns:xlink="http://www.w3.org/1999/xlink" xml:space="preserve" xmlns:serif="http://www.serif.com/" style="fill-rule:evenodd;clip-rule:evenodd;stroke-linejoin:round;stroke-miterlimit:2;">
    <g transform="matrix(1,0,0,1,0.349306,0.144218)">
        <g transform="matrix(0.200589,0,0,0.200589,-0.0495664,0.512249)">
            <path d="M272.85,85.198L261.013,53.29C260.53,51.985 258.684,51.985 258.2,53.29L246.365,85.2C246.303,85.367 246.272,85.543 246.272,85.721C246.272,86.544 246.949,87.221 247.772,87.221L271.443,87.221C272.266,87.221 272.943,86.544 272.943,85.721C272.943,85.543 272.911,85.366 272.849,85.199M278.318,103.133L240.898,103.133C240.272,103.133 239.71,103.525 239.492,104.111L232.125,123.965C231.907,124.551 231.345,124.943 230.719,124.943L214.5,124.943C213.677,124.943 213,124.266 213,123.443C213,123.252 213.037,123.062 213.108,122.885L250.449,29.863C250.677,29.296 251.231,28.922 251.842,28.923L267.372,28.923C267.984,28.923 268.535,29.295 268.764,29.863L306.104,122.884C306.176,123.062 306.212,123.252 306.212,123.444C306.212,124.267 305.535,124.944 304.712,124.944L288.496,124.944C287.87,124.944 287.307,124.552 287.09,123.965L279.722,104.111C279.504,103.525 278.942,103.133 278.316,103.133M313.703,61.569L327.575,61.569C328.398,61.569 329.075,62.246 329.075,63.069L329.075,123.443C329.075,124.266 328.398,124.943 327.575,124.943L313.703,124.943C312.88,124.943 312.203,124.266 312.203,123.443L312.203,63.068C312.203,62.245 312.88,61.568 313.703,61.568M379.667,76.255C379.667,77.078 378.99,77.755 378.167,77.755L377.747,77.755C370.888,77.755 365.857,79.401 362.657,82.693C359.455,85.985 357.857,91.427 357.857,99.017L357.857,123.443C357.857,124.266 357.18,124.943 356.357,124.943L342.621,124.943C341.798,124.943 341.121,124.266 341.121,123.443L341.121,63.068C341.121,62.245 341.798,61.568 342.621,61.568L356.219,61.568C357.042,61.568 357.719,62.245 357.719,63.068L357.719,75.01L357.994,75.01C359.64,70.072 362.246,66.279 365.814,63.625C369.379,60.974 373.769,59.647 378.981,59.647L379.667,59.647L379.667,76.255ZM417.597,75.697C416.774,75.697 416.097,76.374 416.097,77.197L416.097,102.309C416.097,104.87 416.597,106.699 417.605,107.796C418.61,108.893 420.348,109.442 422.817,109.442L424.198,109.442C425.021,109.442 425.698,110.119 425.698,110.942L425.698,123.579C425.698,124.402 425.021,125.079 424.198,125.079L418.29,125.079C412.163,125.079 407.454,123.502 404.162,120.347C400.869,117.192 399.223,112.507 399.223,106.287L399.223,77.197C399.223,76.374 398.546,75.697 397.723,75.697L389.064,75.697C388.241,75.697 387.564,75.02 387.564,74.197L387.564,63.068C387.564,62.245 388.241,61.568 389.064,61.568L397.724,61.568C398.547,61.568 399.224,60.891 399.224,60.068L399.224,37.691C399.224,36.868 399.901,36.191 400.724,36.191L414.596,36.191C415.419,36.191 416.096,36.868 416.096,37.691L416.096,60.068C416.096,60.891 416.773,61.568 417.596,61.568L427.627,61.568C428.45,61.568 429.127,62.245 429.127,63.068L429.127,74.198C429.127,75.021 428.45,75.698 427.627,75.698L417.597,75.698L417.597,75.697ZM481.118,106.15C484.273,102.858 485.85,98.56 485.85,93.255C485.85,87.953 484.273,83.653 481.118,80.361C477.963,77.069 473.824,75.423 468.703,75.423C463.581,75.423 459.445,77.069 456.289,80.361C453.135,83.653 451.557,87.953 451.557,93.255C451.557,98.56 453.135,102.858 456.289,106.15C459.445,109.442 463.581,111.088 468.703,111.088C473.824,111.088 477.963,109.442 481.118,106.15M449.088,123.022C444.424,120.371 440.742,116.506 438.046,111.431C435.347,106.356 433.999,100.298 433.999,93.255C433.999,86.215 435.347,80.155 438.046,75.08C440.742,70.005 444.424,66.143 449.088,63.489C453.752,60.837 458.872,59.511 464.451,59.511C469.389,59.511 473.618,60.471 477.141,62.391C480.659,64.311 483.471,67.01 485.576,70.485L485.85,70.485L485.85,63.068C485.85,62.245 486.527,61.568 487.35,61.568L501.085,61.568C501.908,61.568 502.585,62.245 502.585,63.068L502.585,123.442C502.585,124.265 501.908,124.942 501.085,124.942L487.35,124.942C486.527,124.942 485.85,124.265 485.85,123.442L485.85,116.026L485.576,116.026C483.471,119.503 480.659,122.199 477.14,124.119C473.618,126.039 469.39,126.999 464.451,126.999C458.872,126.999 453.752,125.673 449.088,123.022M559.708,106.15C562.863,102.858 564.44,98.56 564.44,93.255C564.44,87.953 562.863,83.653 559.708,80.361C556.554,77.069 552.415,75.423 547.294,75.423C542.172,75.423 538.035,77.069 534.88,80.361C531.726,83.653 530.147,87.953 530.147,93.255C530.147,98.56 531.726,102.858 534.88,106.15C538.035,109.442 542.172,111.088 547.294,111.088C552.415,111.088 556.554,109.442 559.708,106.15M538.858,124.119C535.337,122.199 532.524,119.503 530.422,116.026L530.147,116.026L530.147,123.442C530.147,124.265 529.47,124.942 528.647,124.942L514.775,124.942C513.952,124.942 513.275,124.265 513.275,123.442L513.275,30.42C513.275,29.597 513.952,28.92 514.775,28.92L528.647,28.92C529.47,28.92 530.147,29.597 530.147,30.42L530.147,70.484L530.422,70.484C532.524,67.009 535.337,64.311 538.858,62.391C542.378,60.47 546.608,59.51 551.547,59.51C557.124,59.51 562.246,60.836 566.91,63.488C571.574,66.142 575.254,70.004 577.952,75.078C580.649,80.156 582,86.216 582,93.256C582,100.299 580.649,106.356 577.953,111.432C575.255,116.507 571.575,120.372 566.911,123.022C562.247,125.674 557.125,127.001 551.548,127.001C546.609,127.001 542.379,126.041 538.859,124.12M605.372,124.943L591.5,124.943C590.677,124.943 590,124.266 590,123.443L590,30.423C590,29.6 590.677,28.923 591.5,28.923L605.372,28.923C606.195,28.923 606.872,29.6 606.872,30.423L606.872,123.443C606.872,124.266 606.195,124.943 605.372,124.943M638.094,76.247C635.794,78.041 634.241,80.631 633.437,84.019C633.216,84.953 633.945,85.849 634.905,85.849L661.305,85.849C662.221,85.849 662.941,85.029 662.793,84.125C662.265,80.92 660.891,78.365 658.67,76.453C656.064,74.213 652.656,73.093 648.45,73.093C644.243,73.093 640.79,74.144 638.094,76.247M671.907,68.359C677.302,74.259 680,82.604 680,93.393L680,95.185C680,96.008 679.323,96.685 678.5,96.685L634.396,96.685C633.569,96.687 632.889,97.368 632.889,98.195C632.889,98.281 632.896,98.366 632.911,98.451C633.616,102.459 635.389,105.643 638.231,108.002C641.476,110.702 645.57,112.049 650.508,112.049C656.883,112.049 662.784,109.561 668.21,104.584C668.873,103.976 669.924,104.105 670.438,104.844L677.182,114.524C677.617,115.144 677.518,116.002 676.952,116.506C673.642,119.404 669.962,121.849 666.008,123.777C661.618,125.925 656.451,127.001 650.508,127.001C643.65,127.001 637.658,125.605 632.538,122.817C627.415,120.029 623.438,116.097 620.605,111.02C617.769,105.945 616.352,100.07 616.352,93.393C616.352,86.719 617.724,80.821 620.467,75.698C623.21,70.578 627.051,66.6 631.99,63.764C636.928,60.931 642.689,59.512 649.274,59.512C658.964,59.512 666.51,62.462 671.907,68.359M330.887,39.249C330.887,44.907 326.3,49.494 320.641,49.494C314.981,49.494 310.394,44.907 310.394,39.248C310.394,33.589 314.982,29.002 320.641,29.002C326.3,29.002 330.887,33.589 330.887,39.248" style="fill:white;fill-rule:nonzero;"/>
        </g>
        <g transform="matrix(0.200589,0,0,0.200589,-0.0495664,0.512249)">
            <path d="M79,1.867L13.04,29.16C9.372,30.678 9.41,35.889 13.101,37.352L79.336,63.618C85.154,65.925 91.638,65.925 97.456,63.618L163.692,37.351C167.382,35.889 167.422,30.679 163.752,29.161L97.794,1.866C91.779,-0.623 85.014,-0.623 78.999,1.866" style="fill:white;fill-rule:nonzero;"/>
        </g>
        <g transform="matrix(0.200589,0,0,0.200589,-0.0495664,0.512249)">
            <path d="M94.273,77.96L94.273,143.577C94.273,146.697 97.42,148.835 100.321,147.685L174.127,119.037C175.808,118.371 176.917,116.737 176.917,114.929L176.917,49.313C176.917,46.192 173.77,44.055 170.869,45.205L97.063,73.853C95.383,74.52 94.273,76.153 94.273,77.961" style="fill:white;fill-rule:nonzero;"/>
        </g>
        <g transform="matrix(0.200589,0,0,0.200589,-0.0495664,0.512249)">
            <path d="M77.038,81.346L55.134,91.922L52.91,92.997L6.672,115.152C3.742,116.566 0,114.43 0,111.174L0,49.588C0,48.41 0.604,47.393 1.414,46.628C1.746,46.297 2.123,46.014 2.534,45.788C3.638,45.125 5.214,44.948 6.554,45.478L76.67,73.26C80.234,74.674 80.514,79.668 77.038,81.347" style="fill:white;fill-rule:nonzero;"/>
        </g>
        <g transform="matrix(0.200589,0,0,0.200589,-0.0495664,0.512249)">
            <path d="M77.038,81.346L55.134,91.922L1.414,46.627C1.746,46.296 2.123,46.014 2.534,45.788C3.638,45.125 5.214,44.948 6.554,45.478L76.67,73.26C80.234,74.674 80.514,79.668 77.038,81.347" style="fill:white;fill-rule:nonzero;"/>
        </g>
    </g>
</svg>
