<?xml version="1.0" encoding="UTF-8" standalone="no"?>
<!DOCTYPE svg PUBLIC "-//W3C//DTD SVG 1.1//EN" "http://www.w3.org/Graphics/SVG/1.1/DTD/svg11.dtd">
<svg width="100%" height="100%" viewBox="0 0 137 31" version="1.1" xmlns="http://www.w3.org/2000/svg" xmlns:xlink="http://www.w3.org/1999/xlink" xml:space="preserve" xmlns:serif="http://www.serif.com/" style="fill-rule:evenodd;clip-rule:evenodd;stroke-linejoin:round;stroke-miterlimit:2;">
    <g transform="matrix(7.99094,0,0,7.99094,-4.42338,-4.61354)">
        <g>
            <path d="M2.92,2.906C2.787,2.903 2.683,2.916 2.596,2.953C2.571,2.963 2.531,2.963 2.528,2.995C2.541,3.008 2.543,3.03 2.555,3.048C2.578,3.087 2.607,3.121 2.642,3.15L2.749,3.227C2.814,3.267 2.887,3.29 2.951,3.33C2.988,3.353 3.024,3.383 3.051,3.408C3.069,3.421 3.081,3.443 3.104,3.451L3.104,3.446C3.092,3.431 3.089,3.409 3.077,3.393L3.027,3.345C2.978,3.28 2.92,3.224 2.854,3.177C2.801,3.14 2.684,3.09 2.662,3.029L2.659,3.026C2.696,3.023 2.739,3.009 2.774,2.999C2.831,2.984 2.882,2.987 2.941,2.972L3.021,2.949L3.021,2.934C2.991,2.904 2.969,2.864 2.938,2.836C2.853,2.763 2.76,2.691 2.663,2.631C2.611,2.598 2.545,2.576 2.49,2.548C2.47,2.538 2.437,2.533 2.425,2.516C2.395,2.479 2.378,2.431 2.357,2.388L2.22,2.098C2.19,2.033 2.172,1.968 2.135,1.908C1.981,1.645 1.758,1.43 1.49,1.284C1.428,1.249 1.355,1.234 1.277,1.216L1.152,1.209C1.125,1.197 1.099,1.166 1.075,1.151C0.98,1.091 0.735,0.961 0.675,1.133C0.63,1.241 0.742,1.348 0.78,1.403C0.808,1.441 0.845,1.485 0.865,1.528C0.877,1.556 0.88,1.586 0.892,1.616L0.979,1.839C0.997,1.875 1.018,1.909 1.041,1.942C1.054,1.96 1.078,1.969 1.083,1.999C1.06,2.032 1.058,2.082 1.045,2.124C0.985,2.312 1.008,2.546 1.093,2.684C1.12,2.726 1.193,2.817 1.268,2.782C1.343,2.752 1.326,2.657 1.348,2.574C1.353,2.554 1.35,2.541 1.36,2.527L1.36,2.53L1.428,2.668C1.48,2.75 1.57,2.835 1.645,2.891C1.685,2.921 1.717,2.973 1.767,2.991L1.767,2.986L1.76,2.986C1.75,2.971 1.735,2.964 1.722,2.953C1.69,2.922 1.661,2.889 1.635,2.853C1.564,2.757 1.502,2.656 1.448,2.55C1.421,2.498 1.398,2.442 1.376,2.39C1.366,2.37 1.366,2.34 1.349,2.33C1.324,2.367 1.287,2.398 1.269,2.443C1.237,2.515 1.234,2.603 1.222,2.695C1.162,2.685 1.144,2.63 1.124,2.583C1.074,2.465 1.066,2.273 1.109,2.138C1.121,2.103 1.171,1.993 1.151,1.96C1.141,1.928 1.108,1.91 1.089,1.885C1.067,1.853 1.044,1.813 1.029,1.778C1,1.684 0.97,1.58 0.927,1.487C0.907,1.444 0.872,1.4 0.843,1.36C0.812,1.314 0.777,1.282 0.752,1.23C0.743,1.21 0.732,1.18 0.745,1.16C0.748,1.147 0.755,1.142 0.768,1.138C0.79,1.12 0.851,1.143 0.873,1.153C0.935,1.178 0.986,1.201 1.038,1.236C1.061,1.253 1.086,1.284 1.116,1.293L1.151,1.293C1.204,1.305 1.264,1.296 1.314,1.311C1.402,1.339 1.482,1.381 1.554,1.426C1.775,1.567 1.954,1.763 2.074,1.996C2.094,2.034 2.102,2.069 2.121,2.109L2.234,2.354C2.269,2.432 2.302,2.512 2.352,2.577C2.377,2.612 2.477,2.63 2.522,2.649C2.555,2.664 2.607,2.677 2.637,2.696L2.804,2.809C2.831,2.829 2.904,2.871 2.919,2.904L2.92,2.906Z" style="fill:white;"/>
            <path d="M1.22,1.457C1.192,1.457 1.172,1.46 1.152,1.465L1.152,1.468L1.155,1.468C1.168,1.495 1.192,1.513 1.208,1.536L1.246,1.616L1.249,1.613C1.272,1.596 1.284,1.57 1.284,1.53C1.274,1.518 1.272,1.507 1.264,1.495C1.254,1.478 1.232,1.47 1.219,1.457L1.22,1.457Z" style="fill:white;"/>
        </g>
        <path d="M10.064,3.34L11.498,3.34C11.666,3.34 11.826,3.306 11.956,3.245C12.173,3.145 12.276,3.012 12.276,2.837L12.276,2.471C12.276,2.331 12.158,2.196 11.922,2.105C11.786,2.057 11.643,2.032 11.499,2.033L10.897,2.033C10.695,2.033 10.6,1.973 10.573,1.839C10.569,1.824 10.569,1.809 10.569,1.793L10.569,1.568C10.569,1.556 10.569,1.541 10.573,1.526C10.6,1.423 10.653,1.396 10.829,1.376L12.297,1.376L12.297,1.044L10.9,1.044C10.698,1.044 10.59,1.056 10.496,1.086C10.202,1.176 10.073,1.322 10.073,1.578L10.073,1.868C10.073,2.093 10.325,2.284 10.753,2.328C10.799,2.332 10.848,2.332 10.898,2.332L11.413,2.332C11.433,2.332 11.451,2.332 11.466,2.336C11.622,2.351 11.691,2.378 11.736,2.436C11.766,2.466 11.774,2.493 11.774,2.528L11.774,2.818C11.774,2.852 11.751,2.898 11.704,2.936C11.657,2.974 11.586,3.001 11.49,3.006C11.47,3.006 11.46,3.01 11.44,3.01L10.064,3.01L10.064,3.34ZM15.379,2.764C15.379,3.104 15.635,3.294 16.146,3.332L16.291,3.34L17.587,3.34L17.587,3.01L16.28,3.01C15.98,3.01 15.88,2.938 15.88,2.762L15.88,1.045L15.38,1.045L15.38,2.765L15.379,2.764ZM12.592,2.779L12.592,1.598C12.592,1.298 12.805,1.114 13.222,1.058L13.355,1.05L14.301,1.05C14.351,1.05 14.393,1.054 14.441,1.058C14.857,1.115 15.066,1.298 15.066,1.598L15.066,2.78C15.066,3.024 14.978,3.154 14.772,3.24L15.26,3.682L14.684,3.682L14.287,3.324L13.887,3.347L13.353,3.347C13.265,3.347 13.166,3.337 13.053,3.309C12.737,3.221 12.58,3.053 12.58,2.779L12.592,2.779ZM13.13,2.753C13.13,2.768 13.138,2.783 13.142,2.803C13.169,2.94 13.298,3.016 13.496,3.016L13.946,3.016L13.534,2.642L14.11,2.642L14.472,2.97C14.542,2.932 14.582,2.878 14.598,2.81C14.602,2.795 14.602,2.776 14.602,2.76L14.602,1.63C14.602,1.615 14.602,1.6 14.598,1.584C14.571,1.454 14.442,1.382 14.248,1.382L13.498,1.382C13.278,1.382 13.132,1.477 13.132,1.63L13.13,2.753Z" style="fill:white;"/>
        <path d="M3.445,3.342L3.941,3.342L3.941,1.378L4.715,3.09C4.803,3.296 4.929,3.372 5.173,3.372C5.417,3.372 5.535,3.296 5.627,3.09L6.397,1.378L6.397,3.342L6.897,3.342L6.897,1.378C6.897,1.188 6.821,1.096 6.661,1.046C6.284,0.932 6.031,1.031 5.917,1.286L5.157,2.979L4.425,1.286C4.315,1.031 4.059,0.932 3.678,1.046C3.522,1.096 3.445,1.186 3.445,1.378L3.445,3.342ZM7.308,1.744L7.808,1.744L7.808,2.824C7.804,2.884 7.828,3.022 8.108,3.026L9.18,3.026L9.18,1.736L9.68,1.736L9.68,3.501C9.68,3.936 9.142,4.031 8.89,4.035L7.32,4.035L7.32,3.703L8.895,3.703C9.215,3.669 9.177,3.509 9.177,3.455L9.177,3.325L8.12,3.325C7.628,3.321 7.312,3.105 7.308,2.855L7.308,1.744Z" style="fill:white;"/>
    </g>
</svg>
