<?xml version="1.0" encoding="UTF-8" standalone="no"?>
<!DOCTYPE svg PUBLIC "-//W3C//DTD SVG 1.1//EN" "http://www.w3.org/Graphics/SVG/1.1/DTD/svg11.dtd">
<svg width="100%" height="100%" viewBox="0 0 137 31" version="1.1" xmlns="http://www.w3.org/2000/svg" xmlns:xlink="http://www.w3.org/1999/xlink" xml:space="preserve" xmlns:serif="http://www.serif.com/" style="fill-rule:evenodd;clip-rule:evenodd;stroke-linejoin:round;stroke-miterlimit:2;">
    <g transform="matrix(1,0,0,1,-3.68392,0.0794668)">
        <g transform="matrix(0.304676,0,0,0.304676,23.9992,15.4205)">
            <g transform="matrix(1,0,0,1,-48,-48)">
                <path d="M76.265,16.093C68.792,10.609 57.787,8 44,8C30.552,8 21.845,11.69 16.392,17.987C10.839,24.401 8,34.266 8,48C8,61.192 12.535,71.037 20.014,77.631C27.56,84.285 38.529,88 52,88C65.082,88 73.815,83.306 79.419,75.749C85.167,67.998 88,56.721 88,43C88,29.856 83.513,21.413 76.265,16.093ZM80.998,9.644C90.662,16.736 96,27.793 96,43C96,57.63 93.009,70.853 85.844,80.514C78.536,90.37 67.268,96 52,96C37.12,96 24.09,91.891 14.723,83.632C5.289,75.314 0,63.159 0,48C0,33.384 2.986,21.249 10.345,12.75C17.805,4.135 29.098,0 44,0C58.564,0 71.559,2.716 80.998,9.644Z" style="fill:white;"/>
                <path d="M65.216,30.523C60.989,26.446 54.683,24 46.455,24C38.157,24 32.777,26.273 29.408,29.941C25.981,33.671 24,39.53 24,48C24,56.352 26.194,62.205 29.87,65.972C33.53,69.722 39.244,72 47.545,72C55.937,72 61.93,69.876 65.807,66.252C69.639,62.671 72,57.068 72,48.818C72,40.669 69.424,34.581 65.216,30.523ZM70.77,24.765C76.824,30.605 80,38.926 80,48.818C80,58.609 77.155,66.597 71.269,72.097C65.43,77.554 57.195,80 47.545,80C37.806,80 29.747,77.299 24.145,71.559C18.558,65.836 16,57.689 16,48C16,38.429 18.226,30.288 23.516,24.529C28.864,18.706 36.711,16 46.455,16C56.267,16 64.734,18.943 70.77,24.765Z" style="fill:white;"/>
                <path d="M58.687,36.252C62.056,39.17 64,43.382 64,48.351C64,52.728 63.029,56.827 60.214,59.817C57.354,62.855 53.301,64 48.805,64C44.71,64 40.496,63.432 37.24,61.198C33.661,58.742 32,54.839 32,50C32,45.803 32.687,41.411 34.898,37.948C37.291,34.201 41.182,32 46.338,32C50.977,32 55.38,33.388 58.687,36.252Z" style="fill:white;"/>
            </g>
        </g>
        <g transform="matrix(0.978245,0,0,0.978245,2.93671,3.5466)">
            <g transform="matrix(0.0154042,0,-3.13204e-34,-0.0154042,-6.87939,35.2693)">
                <path d="M3512,1846C3300,1794 3123,1603 3075,1375C3055,1282 3056,1107 3076,1017C3129,776 3306,592 3528,545C3782,491 4034,600 4163,820C4258,983 4283,1215 4229,1412C4167,1633 4006,1796 3799,1845C3722,1863 3585,1863 3512,1846ZM3802,1627C3946,1559 4025,1407 4024,1195C4024,1034 3990,932 3905,841C3825,756 3710,718 3595,740C3448,768 3349,870 3305,1041C3281,1133 3288,1322 3319,1402C3366,1525 3452,1613 3554,1644C3626,1666 3734,1659 3802,1627Z" style="fill:white;fill-rule:nonzero;"/>
            </g>
            <g transform="matrix(0.0154042,0,-3.13204e-34,-0.0154042,-6.87939,35.2693)">
                <path d="M5428,1633L5425,1495L5363,1492L5300,1489L5300,1310L5430,1310L5430,704L5458,650C5479,607 5495,591 5532,572C5585,545 5701,533 5794,544L5850,551L5850,730L5770,730C5697,730 5687,733 5665,755L5640,779L5640,1310L5840,1310L5840,1490L5640,1490L5640,1770L5431,1770L5428,1633Z" style="fill:white;fill-rule:nonzero;"/>
            </g>
            <g transform="matrix(0.0154042,0,-3.13204e-34,-0.0154042,-6.87939,35.2693)">
                <path d="M7840,1770L7840,1490L7710,1490L7710,1310L7838,1310L7842,1003C7845,707 7846,693 7867,653C7895,601 7930,574 7993,555C8045,540 8165,535 8233,546L8270,553L8270,730L8196,730C8102,730 8075,740 8061,781C8054,801 8050,904 8050,1061L8050,1310L8250,1310L8250,1489L8153,1492L8055,1495L8052,1633L8049,1770L7840,1770Z" style="fill:white;fill-rule:nonzero;"/>
            </g>
            <g transform="matrix(0.0154042,0,-3.13204e-34,-0.0154042,-6.87939,35.2693)">
                <path d="M6188,1491C6157,1481 6116,1463 6096,1451C5949,1359 5915,1150 6032,1045C6086,996 6137,975 6282,945C6432,914 6458,906 6487,878C6533,835 6505,754 6434,724C6415,716 6371,710 6336,710C6243,710 6171,739 6106,804L6054,856L6003,815C5975,792 5940,763 5925,752L5898,730L5923,696C5937,678 5975,646 6006,625C6194,500 6477,501 6621,628C6738,731 6752,922 6648,1016C6593,1066 6542,1086 6387,1121C6314,1137 6239,1158 6220,1168C6177,1189 6162,1226 6179,1267C6197,1312 6244,1334 6320,1334C6400,1334 6468,1306 6527,1248L6569,1207L6639,1270C6719,1341 6719,1345 6648,1403C6526,1501 6335,1538 6188,1491Z" style="fill:white;fill-rule:nonzero;"/>
            </g>
            <g transform="matrix(0.0154042,0,-3.13204e-34,-0.0154042,-6.87939,35.2693)">
                <path d="M7125,1493C7047,1465 6987,1425 6937,1370C6771,1186 6767,867 6927,681C7090,490 7416,480 7584,660C7624,703 7676,787 7668,795C7663,801 7500,860 7490,860C7486,860 7479,849 7476,836C7466,794 7385,732 7324,720C7178,690 7044,785 7024,934L7017,980L7680,980L7680,1033C7680,1240 7588,1406 7435,1477C7356,1513 7204,1521 7125,1493ZM7357,1311C7405,1289 7445,1234 7455,1178L7462,1140L7246,1140C7076,1140 7030,1143 7030,1153C7030,1160 7045,1190 7063,1220C7122,1319 7251,1359 7357,1311Z" style="fill:white;fill-rule:nonzero;"/>
            </g>
            <g transform="matrix(0.0154042,0,-3.13204e-34,-0.0154042,-6.87939,35.2693)">
                <path d="M8630,1491C8600,1482 8557,1462 8535,1448C8470,1407 8400,1318 8385,1259C8379,1233 8380,1232 8457,1215C8500,1206 8544,1196 8556,1194C8572,1190 8580,1197 8595,1231C8624,1295 8676,1324 8759,1324C8800,1324 8837,1318 8856,1307C8891,1289 8920,1237 8920,1193L8920,1164L8751,1128C8506,1076 8422,1033 8374,934C8322,828 8347,686 8431,616C8558,509 8765,508 8913,612L8941,632L8965,605C9002,566 9050,550 9135,550L9210,550L9210,720L9180,720C9161,720 9147,727 9140,739C9134,751 9130,855 9130,1008C9130,1308 9124,1336 9044,1417C9003,1458 8980,1472 8925,1489C8840,1516 8709,1517 8630,1491ZM8906,817C8877,747 8789,705 8683,712C8624,716 8614,720 8589,748C8538,805 8556,892 8625,924C8645,934 8718,954 8788,969L8915,997L8918,924C8920,877 8916,839 8906,817Z" style="fill:white;fill-rule:nonzero;"/>
            </g>
            <g transform="matrix(0.0154042,0,-3.13204e-34,-0.0154042,-6.87939,35.2693)">
                <path d="M4400,1172C4400,985 4404,829 4411,795C4432,681 4490,601 4585,558C4659,524 4784,525 4860,561C4890,575 4930,601 4948,617L4980,648L4980,550L5200,550L5200,1490L4981,1490L4978,1178C4975,819 4973,810 4891,759C4854,735 4835,730 4786,730C4709,730 4666,754 4640,813C4622,852 4620,881 4620,1173L4620,1490L4400,1490L4400,1172Z" style="fill:white;fill-rule:nonzero;"/>
            </g>
        </g>
    </g>
</svg>
