<?xml version="1.0" encoding="UTF-8" standalone="no"?>
<!DOCTYPE svg PUBLIC "-//W3C//DTD SVG 1.1//EN" "http://www.w3.org/Graphics/SVG/1.1/DTD/svg11.dtd">
<svg width="100%" height="100%" viewBox="0 0 137 31" version="1.1" xmlns="http://www.w3.org/2000/svg" xmlns:xlink="http://www.w3.org/1999/xlink" xml:space="preserve" xmlns:serif="http://www.serif.com/" style="fill-rule:evenodd;clip-rule:evenodd;stroke-linejoin:round;stroke-miterlimit:2;">
    <g transform="matrix(0.259983,0,0,0.259983,1.94443,1.23809)">
        <path d="M104.688,91.429C107.464,91.429 109.714,93.679 109.714,96.455L109.714,99.661C109.714,105.213 105.213,109.714 99.661,109.714L60.339,109.714C54.787,109.714 50.286,105.213 50.286,99.661L50.286,96.455C50.286,93.679 52.536,91.429 55.312,91.429L104.688,91.429ZM99.661,36.571C105.213,36.571 109.714,41.072 109.714,46.624L109.714,72.688C109.714,75.464 107.464,77.714 104.688,77.714L10.053,77.714C4.501,77.714 0,73.213 0,67.661L0,41.598C0,38.822 2.25,36.571 5.026,36.571L99.661,36.571ZM49.376,0C54.928,0 59.429,4.501 59.429,10.053L59.429,17.831C59.429,20.607 57.178,22.857 54.402,22.857L5.026,22.857C2.25,22.857 0,20.607 0,17.831L0,10.053C0,4.501 4.501,0 10.053,0L49.376,0Z" style="fill:white;fill-rule:nonzero;"/>
        <path d="M261.854,31.786C281.982,31.786 292.926,46.63 292.926,65.375L292.926,70.658L248.016,70.658C249.4,79.716 254.809,84.873 262.483,84.873C268.773,84.873 273.679,81.854 275.566,76.067L292.423,81.477C287.517,94.182 275.44,100.849 262.231,100.849C242.229,100.849 228.643,86.886 228.643,66.255C228.643,46.63 242.733,31.786 261.854,31.786ZM376.718,31.786C396.217,31.786 409.929,45.75 409.929,66.381C409.929,87.012 396.217,100.849 376.718,100.849C357.094,100.849 343.508,87.012 343.508,66.381C343.508,45.75 357.094,31.786 376.718,31.786ZM449.2,31.786C468.699,31.786 482.409,45.75 482.409,66.381C482.409,87.012 468.699,100.849 449.2,100.849C429.575,100.849 415.989,87.012 415.989,66.381C415.989,45.75 429.575,31.786 449.2,31.786ZM324.21,14.804L324.21,33.17L337.168,33.17L337.168,49.776L324.21,49.776L324.21,76.571C324.21,82.106 327.104,83.112 332.136,83.112C334.526,83.112 335.658,82.986 337.922,82.735L337.922,99.214C334.4,99.717 330.626,100.095 325.846,100.095C311.505,100.095 304.335,95.314 304.335,81.728L304.335,49.776L295.906,49.776L295.906,33.17L304.335,33.17L304.335,14.804L324.21,14.804ZM188.974,9.143C210.234,9.143 223.442,19.332 223.442,38.202C223.442,51.663 216.398,60.971 204.321,65.123L226.084,99.466L202.057,99.466L182.432,67.387L171.866,67.387L171.866,99.466L150.857,99.466L150.857,9.143L188.974,9.143ZM512,9.143L512,99.466L491.872,99.466L491.872,9.143L512,9.143ZM376.718,48.266C368.667,48.266 363.509,54.807 363.509,66.381C363.509,77.954 368.667,84.496 376.718,84.496C384.769,84.496 389.927,77.954 389.927,66.381C389.927,54.807 384.769,48.266 376.718,48.266ZM449.2,48.266C441.148,48.266 435.991,54.807 435.991,66.381C435.991,77.954 441.148,84.496 449.2,84.496C457.253,84.496 462.409,77.954 462.409,66.381C462.409,54.807 457.253,48.266 449.2,48.266ZM261.602,47.386C255.438,47.386 250.658,51.034 248.645,58.33L273.05,58.33C272.924,52.417 269.024,47.386 261.602,47.386ZM187.842,26.88L171.866,26.88L171.866,50.279L187.842,50.279C197.78,50.279 202.811,45.876 202.811,38.58C202.811,31.157 197.78,26.88 187.842,26.88Z" style="fill:white;fill-rule:nonzero;"/>
    </g>
</svg>
