<?xml version="1.0" encoding="UTF-8" standalone="no"?>
<!DOCTYPE svg PUBLIC "-//W3C//DTD SVG 1.1//EN" "http://www.w3.org/Graphics/SVG/1.1/DTD/svg11.dtd">
<svg width="100%" height="100%" viewBox="0 0 137 31" version="1.1" xmlns="http://www.w3.org/2000/svg" xmlns:xlink="http://www.w3.org/1999/xlink" xml:space="preserve" xmlns:serif="http://www.serif.com/" style="fill-rule:evenodd;clip-rule:evenodd;stroke-linejoin:round;stroke-miterlimit:2;">
    <g transform="matrix(0.638466,0,0,0.638466,30.1926,-3.65061)">
        <path d="M8.725,43.474L19.375,26.974L9.98,26.974C9.893,26.457 9.858,25.932 9.876,25.408C9.859,24.884 9.894,24.358 9.98,23.842L25.12,23.842L25.32,24.364L14.564,40.864L24.6,40.864C24.687,41.381 24.722,41.906 24.704,42.43C24.725,42.92 24.69,43.41 24.6,43.892L8.83,43.892L8.725,43.474ZM39.322,30.734C39.44,29.539 39.018,28.351 38.173,27.497C37.164,26.803 35.949,26.472 34.727,26.557C33.853,26.57 32.981,26.64 32.116,26.766C31.338,26.879 30.57,27.053 29.819,27.288C29.285,26.333 29.032,25.247 29.089,24.155C30.037,23.836 31.018,23.626 32.013,23.528C33.048,23.355 34.097,23.285 35.146,23.319C37.277,23.186 39.388,23.815 41.098,25.094C42.456,26.244 43.186,28.227 43.186,30.837L43.186,43.472L39.844,44.099C38.532,44.307 37.204,44.412 35.876,44.412C34.72,44.422 33.576,44.316 32.43,44.099C31.487,43.91 30.596,43.518 29.819,42.95C29.102,42.442 28.527,41.759 28.148,40.966C27.71,40.055 27.495,39.053 27.521,38.042C27.477,37.017 27.73,36.002 28.251,35.118C28.672,34.262 29.323,33.539 30.131,33.03C30.974,32.488 31.887,32.067 32.846,31.777C33.898,31.477 34.989,31.337 36.083,31.359C36.781,31.333 37.479,31.368 38.171,31.463C38.693,31.463 39.111,31.567 39.529,31.567L39.529,30.732L39.322,30.734ZM39.322,34.494C38.829,34.469 38.34,34.399 37.86,34.294C37.233,34.294 36.71,34.19 36.294,34.19C34.974,34.111 33.661,34.439 32.534,35.13C31.698,35.775 31.229,36.79 31.281,37.845C31.161,39.019 31.732,40.161 32.743,40.769C33.191,41.021 33.692,41.164 34.205,41.187C34.688,41.27 35.177,41.305 35.667,41.291C36.295,41.308 36.924,41.274 37.547,41.187L39.217,40.874L39.217,34.504L39.322,34.494ZM47.467,23.842C47.78,23.842 47.989,23.738 48.302,23.738L49.972,23.738C50.285,23.738 50.494,23.842 50.807,23.842C50.864,24.011 50.899,24.186 50.911,24.364C50.911,24.677 51.015,24.886 51.015,25.199C51.015,25.512 51.119,25.826 51.119,26.139C51.116,26.319 51.152,26.496 51.223,26.661L52.163,25.408C52.569,25.003 53.025,24.652 53.521,24.364C54.736,23.691 56.101,23.334 57.489,23.32C58.589,23.306 59.701,23.52 60.726,23.947C61.733,24.352 62.626,24.998 63.326,25.827C64.087,26.749 64.655,27.815 64.997,28.96C65.438,30.415 65.65,31.93 65.624,33.45C65.791,36.429 64.777,39.357 62.805,41.595C60.925,43.579 58.305,44.519 54.869,44.519C54.275,44.536 53.681,44.502 53.094,44.415C52.467,44.31 51.945,44.206 51.528,44.102L51.528,53.396C51.215,53.396 50.901,53.5 50.484,53.5L48.604,53.5C48.291,53.5 47.977,53.396 47.664,53.396L47.664,23.842L47.467,23.842ZM51.33,40.76C51.838,40.948 52.362,41.088 52.896,41.178C53.588,41.273 54.286,41.308 54.984,41.282C55.884,41.305 56.758,41.162 57.584,40.864C58.356,40.6 59.042,40.13 59.568,39.506C60.163,38.795 60.624,37.981 60.926,37.104C61.284,35.991 61.46,34.827 61.448,33.658C61.514,31.915 61.117,30.186 60.299,28.646C59.486,27.376 58.043,26.646 56.539,26.766C55.9,26.768 55.265,26.874 54.659,27.079C54.064,27.303 53.529,27.66 53.093,28.123C52.593,28.63 52.202,29.234 51.944,29.898C51.628,30.731 51.486,31.618 51.526,32.498L51.526,40.748L51.33,40.76ZM70.336,26.86L67.736,26.86C67.642,26.629 67.607,26.378 67.632,26.13L67.632,24.46C67.632,24.147 67.736,23.938 67.736,23.73L74.106,23.73L74.106,43.988C73.793,43.988 73.479,44.092 73.166,44.092L71.286,44.092C70.973,44.092 70.659,43.988 70.346,43.988L70.336,26.86ZM82.554,34.9C82.658,37.093 83.181,38.764 84.224,39.704C85.556,40.837 87.284,41.4 89.028,41.27C90.845,41.28 92.65,40.963 94.354,40.33C94.607,40.786 94.783,41.279 94.876,41.792C94.996,42.341 95.066,42.9 95.086,43.462C94.187,43.864 93.239,44.144 92.267,44.297C91.131,44.514 89.967,44.619 88.821,44.61C87.222,44.673 85.626,44.425 84.121,43.88C82.913,43.314 81.817,42.536 80.884,41.583C80.017,40.623 79.375,39.481 79.004,38.241C78.577,36.89 78.365,35.481 78.377,34.064C78.383,32.656 78.557,31.264 78.899,29.887C79.258,28.664 79.862,27.527 80.674,26.545C81.504,25.612 82.494,24.845 83.598,24.248C84.966,23.596 86.469,23.274 87.984,23.308C90.377,23.204 92.689,24.206 94.249,26.023C94.992,26.862 95.528,27.864 95.815,28.947C96.207,30.16 96.385,31.432 96.337,32.707L96.337,33.857C96.337,34.275 96.233,34.587 96.233,34.901L82.554,34.9ZM92.579,31.976C92.585,31.268 92.479,30.563 92.266,29.888C92.051,29.268 91.771,28.673 91.431,28.113C91.046,27.589 90.546,27.16 89.969,26.86C89.318,26.552 88.601,26.408 87.881,26.442C86.508,26.372 85.172,26.907 84.226,27.904C83.302,29.07 82.755,30.492 82.66,31.977L92.579,31.976ZM100.724,23.832C101.037,23.832 101.246,23.728 101.559,23.728L103.229,23.728C103.542,23.728 103.751,23.832 104.064,23.832C104.199,24.343 104.269,24.869 104.273,25.398C104.358,25.95 104.392,26.509 104.377,27.068C104.909,26.135 105.662,25.346 106.57,24.771C107.599,24.12 108.799,23.792 110.016,23.831L110.643,23.831C110.824,23.804 111.008,23.841 111.165,23.935C111.165,24.135 111.269,24.457 111.269,24.665L111.269,25.5C111.286,25.817 111.251,26.134 111.165,26.44C111.165,26.753 111.061,27.067 111.061,27.38C110.861,27.38 110.643,27.276 110.434,27.276L109.912,27.276C109.238,27.27 108.567,27.375 107.928,27.589C107.263,27.793 106.655,28.151 106.153,28.633C105.572,29.217 105.142,29.934 104.9,30.721C104.573,31.803 104.432,32.933 104.482,34.063L104.482,44.1C104.169,44.1 103.855,44.204 103.542,44.204L101.662,44.204C101.349,44.204 100.932,44.1 100.618,44.1L100.618,23.842L100.724,23.832ZM77.854,11.938L74,11.938L76.715,9.223C76.515,8.91 76.297,8.701 76.088,8.388C75.788,8.171 75.508,7.926 75.253,7.658L72.53,10.37L72.53,6.6C72.189,6.514 71.837,6.479 71.486,6.496C71.135,6.474 70.782,6.509 70.442,6.6L70.442,10.464L67.622,7.644C67.298,7.83 67.014,8.078 66.787,8.375C66.587,8.688 66.265,8.897 66.057,9.21L68.772,11.925L65,11.925L64.896,12.969C64.872,13.324 64.908,13.68 65,14.023L68.864,14.023L66.044,16.843C66.457,17.463 66.989,17.997 67.61,18.409L70.325,15.694L70.325,19.558C70.666,19.644 71.018,19.679 71.369,19.662C71.72,19.684 72.073,19.649 72.413,19.558L72.413,15.694L75.128,18.409C75.452,18.223 75.736,17.975 75.963,17.678C76.232,17.423 76.477,17.144 76.693,16.843L74,14.13L77.864,14.13C77.95,13.789 77.985,13.437 77.968,13.086C77.99,12.7 77.955,12.312 77.864,11.936L77.854,11.938ZM73.05,12.982C73.04,13.442 72.97,13.899 72.84,14.34C72.41,14.51 71.945,14.58 71.482,14.54C71.022,14.53 70.565,14.46 70.124,14.33C69.954,13.9 69.884,13.435 69.924,12.972C69.934,12.512 70.004,12.055 70.134,11.614C70.564,11.444 71.029,11.374 71.492,11.414C71.952,11.424 72.409,11.494 72.85,11.624C72.971,12.067 73.041,12.523 73.059,12.982L73.05,12.982Z" style="fill:white;fill-rule:nonzero;"/>
    </g>
</svg>
